<svg width="28" height="28" viewBox="0 0 28 28" fill="none" xmlns="http://www.w3.org/2000/svg">
<path d="M20.2705 12.4917L23.4577 9.49268L23.4763 9.47409C24.1327 8.81764 24.5015 7.9273 24.5015 6.99893C24.5015 6.07057 24.1327 5.18023 23.4763 4.52378C22.8198 3.86733 21.9295 3.49854 21.0011 3.49854C20.0727 3.49854 19.1824 3.86733 18.5259 4.52378C18.5259 4.53034 18.5139 4.53581 18.5074 4.54237L15.5083 7.72956L6.43016 4.42643C6.2737 4.36953 6.10425 4.35844 5.9417 4.39447C5.77915 4.43051 5.63026 4.51217 5.51251 4.62987L2.88751 7.25487C2.79604 7.34642 2.72601 7.45711 2.68247 7.57898C2.63894 7.70085 2.62298 7.83086 2.63574 7.95964C2.6485 8.08842 2.68967 8.21277 2.75628 8.32372C2.82289 8.43467 2.91328 8.52947 3.02095 8.60128L10.0089 13.2596L8.38798 14.875H6.12501C5.89325 14.8751 5.67101 14.9672 5.50704 15.131L2.88204 17.756C2.77967 17.8581 2.7042 17.984 2.66238 18.1224C2.62057 18.2608 2.61371 18.4075 2.64242 18.5492C2.67114 18.6909 2.73452 18.8233 2.82692 18.9345C2.91931 19.0458 3.03783 19.1324 3.17188 19.1866L7.19907 20.7977L8.80688 24.8172L8.81345 24.8347C8.86907 24.9694 8.95742 25.088 9.0705 25.1798C9.18358 25.2717 9.31779 25.3338 9.46098 25.3607C9.60416 25.3875 9.75178 25.3781 9.89044 25.3335C10.0291 25.2888 10.1544 25.2102 10.255 25.1049L12.8658 22.493C12.9475 22.4121 13.0124 22.3158 13.0569 22.2098C13.1014 22.1038 13.1245 21.99 13.125 21.875V19.6121L14.7394 17.9977L19.3977 24.9857C19.4695 25.0933 19.5643 25.1837 19.6752 25.2503C19.7862 25.3169 19.9105 25.3581 20.0393 25.3709C20.1681 25.3836 20.2981 25.3677 20.42 25.3241C20.5418 25.2806 20.6525 25.2106 20.7441 25.1191L23.3691 22.4941C23.4868 22.3763 23.5684 22.2274 23.6045 22.0649C23.6405 21.9024 23.6294 21.7329 23.5725 21.5764L20.2705 12.4917ZM20.2628 23.1263L15.6045 16.1394C15.5331 16.0309 15.4385 15.9397 15.3274 15.8723C15.2164 15.805 15.0917 15.7632 14.9625 15.75C14.933 15.75 14.9045 15.75 14.8761 15.75C14.7611 15.7501 14.6472 15.7728 14.541 15.8169C14.4348 15.861 14.3383 15.9256 14.257 16.0071L11.632 18.6321C11.4679 18.7958 11.3754 19.0181 11.375 19.25V21.513L9.94548 22.9425L8.68766 19.7969C8.64365 19.6877 8.57806 19.5885 8.4948 19.5052C8.41154 19.422 8.31234 19.3564 8.20313 19.3124L5.0597 18.0546L6.48813 16.625H8.75001C8.86495 16.6251 8.97878 16.6026 9.085 16.5586C9.19122 16.5147 9.28775 16.4503 9.36907 16.3691L11.9941 13.7441C12.0857 13.6525 12.1559 13.5418 12.1996 13.4198C12.2432 13.2978 12.2593 13.1677 12.2465 13.0387C12.2337 12.9098 12.1925 12.7853 12.1258 12.6743C12.059 12.5632 11.9685 12.4684 11.8606 12.3966L4.87376 7.73722L6.35032 6.26175L15.4525 9.57143C15.6129 9.63036 15.787 9.64105 15.9534 9.60218C16.1197 9.5633 16.2711 9.47657 16.3888 9.35268L19.7728 5.75315C20.1027 5.43295 20.5453 5.2554 21.0049 5.25886C21.4646 5.26232 21.9045 5.44652 22.2295 5.77165C22.5545 6.09678 22.7385 6.53672 22.7417 6.99641C22.745 7.4561 22.5672 7.89861 22.2469 8.22831L18.6517 11.6113C18.5278 11.7289 18.4411 11.8803 18.4022 12.0467C18.3634 12.213 18.374 12.3872 18.433 12.5475L21.7427 21.6497L20.2628 23.1263Z" fill="white"/>
</svg>
