<svg width="28" height="28" viewBox="0 0 28 28" fill="none" xmlns="http://www.w3.org/2000/svg">
<path d="M17.0624 7.87498C16.3137 7.87453 15.5683 7.97496 14.8464 8.17358C14.5615 7.70863 14.2153 7.28409 13.8172 6.91139L14.8574 5.42717C14.9233 5.33302 14.97 5.2268 14.9949 5.11459C15.0198 5.00237 15.0223 4.88636 15.0024 4.77316C14.9824 4.65997 14.9404 4.55182 14.8786 4.45488C14.8169 4.35794 14.7366 4.27411 14.6425 4.20818C14.5483 4.14226 14.4421 4.09552 14.3299 4.07064C14.2177 4.04576 14.1016 4.04323 13.9885 4.06319C13.8753 4.08314 13.7671 4.1252 13.6702 4.18695C13.5732 4.24871 13.4894 4.32895 13.4235 4.42311L12.3833 5.90623C11.528 5.47435 10.5831 5.24956 9.62488 5.24998C9.56144 5.24998 9.498 5.24998 9.43456 5.24998L9.11847 3.46826C9.10188 3.35217 9.06212 3.24059 9.00156 3.14017C8.94099 3.03974 8.86086 2.95251 8.76592 2.88367C8.67098 2.81483 8.56317 2.76577 8.44889 2.73942C8.33462 2.71307 8.21621 2.70995 8.10071 2.73027C7.98521 2.75058 7.87496 2.79391 7.77654 2.85767C7.67811 2.92143 7.59351 3.00433 7.52775 3.10143C7.462 3.19854 7.41643 3.30787 7.39377 3.42293C7.3711 3.538 7.3718 3.65644 7.39581 3.77123L7.71081 5.55842C6.74039 5.87939 5.86552 6.43769 5.16566 7.18264L3.67597 6.14029C3.58189 6.07275 3.47534 6.02455 3.3625 5.99849C3.24965 5.97243 3.13275 5.96904 3.01859 5.9885C2.90442 6.00797 2.79525 6.0499 2.69741 6.11187C2.59957 6.17385 2.51501 6.25463 2.44863 6.34953C2.38225 6.44444 2.33537 6.55158 2.3107 6.66473C2.28604 6.77789 2.28409 6.89482 2.30496 7.00874C2.32583 7.12266 2.36911 7.2313 2.43229 7.32837C2.49547 7.42544 2.57729 7.50899 2.673 7.5742L4.15613 8.61545C3.72272 9.47063 3.49784 10.4162 3.49988 11.375C3.49988 11.4373 3.49988 11.5008 3.49988 11.5631L1.71816 11.8781C1.5025 11.9159 1.30884 12.0331 1.17541 12.2067C1.04198 12.3803 0.978473 12.5976 0.997428 12.8157C1.01638 13.0339 1.11642 13.2369 1.2778 13.3849C1.43917 13.5329 1.65015 13.615 1.86909 13.615C1.92005 13.6149 1.97091 13.6105 2.02113 13.6019L3.80613 13.2869C3.96296 13.7644 4.17824 14.2206 4.44706 14.6453C3.61012 15.4227 3.02665 16.4341 2.77264 17.5478C2.51864 18.6615 2.60587 19.8258 3.02297 20.8893C3.44007 21.9527 4.16772 22.8659 5.11116 23.5099C6.05459 24.1539 7.17009 24.4989 8.31238 24.5H17.0624C19.267 24.5 21.3813 23.6242 22.9402 22.0653C24.4991 20.5064 25.3749 18.3921 25.3749 16.1875C25.3749 13.9829 24.4991 11.8686 22.9402 10.3097C21.3813 8.75076 19.267 7.87498 17.0624 7.87498ZM5.24988 11.375C5.2504 10.4484 5.54508 9.54594 6.09145 8.79761C6.63783 8.04928 7.40768 7.49374 8.29006 7.21105C9.17245 6.92836 10.1218 6.93311 11.0013 7.22462C11.8808 7.51613 12.6451 8.07935 13.1839 8.83311C11.399 9.77242 10.015 11.3267 9.288 13.2081C8.13775 13.0096 6.95427 13.1688 5.89738 13.6642C5.47423 12.9756 5.25011 12.1832 5.24988 11.375ZM17.0624 22.75H8.31238C7.77384 22.749 7.24123 22.6375 6.74748 22.4225C6.25374 22.2075 5.80935 21.8935 5.44179 21.4999C5.07423 21.1063 4.79133 20.6414 4.61056 20.1342C4.4298 19.6269 4.35502 19.0879 4.39084 18.5505C4.42667 18.0132 4.57235 17.4889 4.81886 17.0101C5.06538 16.5313 5.40749 16.1082 5.82405 15.7668C6.2406 15.4255 6.72275 15.1733 7.24067 15.0257C7.7586 14.8781 8.30129 14.8384 8.83519 14.9089C8.79472 15.1681 8.76628 15.4328 8.75097 15.6997C8.74436 15.8146 8.76045 15.9297 8.79832 16.0383C8.83619 16.147 8.8951 16.2472 8.97168 16.3331C9.04825 16.419 9.14101 16.489 9.24464 16.5391C9.34827 16.5892 9.46075 16.6184 9.57566 16.625C9.69056 16.6316 9.80565 16.6155 9.91434 16.5776C10.023 16.5398 10.1232 16.4809 10.2091 16.4043C10.295 16.3277 10.365 16.2349 10.4151 16.1313C10.4652 16.0277 10.4944 15.9152 10.501 15.8003C10.5255 15.3639 10.5944 14.9311 10.7066 14.5086C10.7066 14.4911 10.7164 14.4736 10.7197 14.4561C11.0413 13.2742 11.6869 12.2058 12.5837 11.3715C13.4804 10.5372 14.5926 9.97021 15.7945 9.73457C16.9965 9.49893 18.2404 9.60403 19.3857 10.038C20.5311 10.472 21.5324 11.2175 22.2764 12.1904C23.0204 13.1634 23.4777 14.325 23.5964 15.544C23.7152 16.7631 23.4907 17.9911 22.9484 19.0893C22.4062 20.1876 21.5676 21.1123 20.5275 21.7592C19.4874 22.406 18.2872 22.7492 17.0624 22.75Z" fill="white"/>
</svg>
