<svg width="28" height="28" viewBox="0 0 28 28" fill="none" xmlns="http://www.w3.org/2000/svg">
<path d="M3.5 8.75C3.5 8.51794 3.59219 8.29538 3.75628 8.13128C3.92038 7.96719 4.14294 7.875 4.375 7.875H7.875C8.10706 7.875 8.32962 7.96719 8.49372 8.13128C8.65781 8.29538 8.75 8.51794 8.75 8.75C8.75 8.98206 8.65781 9.20462 8.49372 9.36872C8.32962 9.53281 8.10706 9.625 7.875 9.625H4.375C4.14294 9.625 3.92038 9.53281 3.75628 9.36872C3.59219 9.20462 3.5 8.98206 3.5 8.75ZM23.625 18.375H19.25V16.625C19.25 16.3929 19.1578 16.1704 18.9937 16.0063C18.8296 15.8422 18.6071 15.75 18.375 15.75C18.1429 15.75 17.9204 15.8422 17.7563 16.0063C17.5922 16.1704 17.5 16.3929 17.5 16.625V21.875C17.5 22.1071 17.5922 22.3296 17.7563 22.4937C17.9204 22.6578 18.1429 22.75 18.375 22.75C18.6071 22.75 18.8296 22.6578 18.9937 22.4937C19.1578 22.3296 19.25 22.1071 19.25 21.875V20.125H23.625C23.8571 20.125 24.0796 20.0328 24.2437 19.8687C24.4078 19.7046 24.5 19.4821 24.5 19.25C24.5 19.0179 24.4078 18.7954 24.2437 18.6313C24.0796 18.4672 23.8571 18.375 23.625 18.375ZM14.875 18.375H4.375C4.14294 18.375 3.92038 18.4672 3.75628 18.6313C3.59219 18.7954 3.5 19.0179 3.5 19.25C3.5 19.4821 3.59219 19.7046 3.75628 19.8687C3.92038 20.0328 4.14294 20.125 4.375 20.125H14.875C15.1071 20.125 15.3296 20.0328 15.4937 19.8687C15.6578 19.7046 15.75 19.4821 15.75 19.25C15.75 19.0179 15.6578 18.7954 15.4937 18.6313C15.3296 18.4672 15.1071 18.375 14.875 18.375ZM11.375 12.25C11.6071 12.25 11.8296 12.1578 11.9937 11.9937C12.1578 11.8296 12.25 11.6071 12.25 11.375V9.625H23.625C23.8571 9.625 24.0796 9.53281 24.2437 9.36872C24.4078 9.20462 24.5 8.98206 24.5 8.75C24.5 8.51794 24.4078 8.29538 24.2437 8.13128C24.0796 7.96719 23.8571 7.875 23.625 7.875H12.25V6.125C12.25 5.89294 12.1578 5.67038 11.9937 5.50628C11.8296 5.34219 11.6071 5.25 11.375 5.25C11.1429 5.25 10.9204 5.34219 10.7563 5.50628C10.5922 5.67038 10.5 5.89294 10.5 6.125V11.375C10.5 11.6071 10.5922 11.8296 10.7563 11.9937C10.9204 12.1578 11.1429 12.25 11.375 12.25Z" fill="white"/>
</svg>
