<svg width="28" height="28" viewBox="0 0 28 28" fill="none" xmlns="http://www.w3.org/2000/svg">
<path d="M21.8749 16.625C21.1015 16.6246 20.35 16.8816 19.7388 17.3556L17.2112 15.3869C17.402 14.9494 17.5003 14.4772 17.4999 14C17.4999 13.9191 17.4999 13.8381 17.4912 13.7583L18.9382 13.2759C19.396 13.982 20.0929 14.4995 20.9011 14.7336C21.7094 14.9677 22.5749 14.9028 23.3392 14.5508C24.1035 14.1987 24.7154 13.5831 25.0628 12.8166C25.4102 12.0502 25.4698 11.1842 25.2307 10.3774C24.9916 9.57061 24.4699 8.87694 23.761 8.42348C23.0522 7.97001 22.2037 7.78711 21.371 7.90827C20.5382 8.02944 19.7771 8.44656 19.2268 9.08323C18.6766 9.71991 18.3742 10.5335 18.3749 11.375C18.3749 11.4559 18.3749 11.5369 18.3837 11.6167L16.9367 12.0991C16.6194 11.6087 16.1845 11.2054 15.6716 10.9261C15.1587 10.6468 14.584 10.5003 13.9999 10.5C13.8068 10.5004 13.614 10.5165 13.4235 10.5481L12.6754 8.85936C13.3214 8.34321 13.7638 7.61502 13.9242 6.80386C14.0845 5.99269 13.9525 5.15094 13.5516 4.42779C13.1506 3.70465 12.5066 3.14681 11.7336 2.85316C10.9606 2.5595 10.1087 2.54899 9.3287 2.82349C8.54873 3.09799 7.89113 3.63978 7.47245 4.35281C7.05378 5.06585 6.90107 5.90409 7.04139 6.71896C7.18171 7.53384 7.606 8.27272 8.23906 8.80464C8.87212 9.33657 9.67307 9.62719 10.4999 9.62499C10.6931 9.62459 10.8858 9.60849 11.0763 9.57686L11.8245 11.2612C11.19 11.7634 10.7497 12.4702 10.5787 13.2611C10.4078 14.0519 10.5168 14.8775 10.8871 15.5969L8.07509 18.095C7.36741 17.6179 6.51004 17.4153 5.66366 17.5251C4.81729 17.635 4.04004 18.0497 3.47758 18.6917C2.91513 19.3336 2.6061 20.1586 2.60841 21.012C2.61072 21.8655 2.92422 22.6888 3.49014 23.3277C4.05607 23.9666 4.83556 24.3771 5.68251 24.4823C6.52947 24.5876 7.38573 24.3803 8.09081 23.8994C8.79589 23.4185 9.30138 22.697 9.51252 21.87C9.72366 21.0431 9.62597 20.1675 9.23774 19.4075L12.0498 16.9094C12.6586 17.3193 13.3812 17.5269 14.1148 17.5025C14.8484 17.4782 15.5557 17.2232 16.136 16.7737L18.6637 18.7425C18.4734 19.1786 18.3752 19.6492 18.3749 20.125C18.3749 20.8172 18.5802 21.4939 18.9648 22.0695C19.3494 22.6451 19.896 23.0937 20.5355 23.3586C21.1751 23.6235 21.8788 23.6928 22.5577 23.5577C23.2367 23.4227 23.8603 23.0893 24.3498 22.5999C24.8393 22.1104 25.1726 21.4867 25.3077 20.8078C25.4427 20.1289 25.3734 19.4251 25.1085 18.7856C24.8436 18.1461 24.395 17.5994 23.8194 17.2148C23.2439 16.8303 22.5672 16.625 21.8749 16.625ZM21.8749 9.62499C22.221 9.62499 22.5594 9.72762 22.8472 9.91992C23.135 10.1122 23.3593 10.3855 23.4917 10.7053C23.6242 11.0251 23.6588 11.3769 23.5913 11.7164C23.5238 12.0559 23.3571 12.3677 23.1124 12.6124C22.8676 12.8572 22.5558 13.0238 22.2163 13.0914C21.8769 13.1589 21.525 13.1242 21.2052 12.9918C20.8855 12.8593 20.6122 12.635 20.4199 12.3472C20.2276 12.0594 20.1249 11.7211 20.1249 11.375C20.1249 10.9109 20.3093 10.4657 20.6375 10.1376C20.9657 9.80936 21.4108 9.62499 21.8749 9.62499ZM8.74993 6.12499C8.74993 5.77887 8.85257 5.44053 9.04486 5.15274C9.23715 4.86495 9.51046 4.64065 9.83024 4.5082C10.15 4.37575 10.5019 4.34109 10.8413 4.40861C11.1808 4.47614 11.4926 4.64281 11.7374 4.88755C11.9821 5.13229 12.1488 5.44411 12.2163 5.78358C12.2838 6.12305 12.2492 6.47491 12.1167 6.79468C11.9843 7.11446 11.76 7.38777 11.4722 7.58006C11.1844 7.77235 10.846 7.87499 10.4999 7.87499C10.0358 7.87499 9.59068 7.69061 9.2625 7.36242C8.93431 7.03424 8.74993 6.58912 8.74993 6.12499ZM6.12493 22.75C5.77881 22.75 5.44047 22.6474 5.15268 22.4551C4.8649 22.2628 4.6406 21.9895 4.50814 21.6697C4.37569 21.3499 4.34103 20.998 4.40856 20.6586C4.47608 20.3191 4.64275 20.0073 4.8875 19.7626C5.13224 19.5178 5.44406 19.3511 5.78352 19.2836C6.12299 19.2161 6.47486 19.2507 6.79463 19.3832C7.1144 19.5157 7.38771 19.74 7.58 20.0277C7.7723 20.3155 7.87493 20.6539 7.87493 21C7.87493 21.4641 7.69056 21.9092 7.36237 22.2374C7.03418 22.5656 6.58906 22.75 6.12493 22.75ZM12.2499 14C12.2499 13.6539 12.3526 13.3155 12.5449 13.0277C12.7372 12.74 13.0105 12.5157 13.3302 12.3832C13.65 12.2507 14.0019 12.2161 14.3413 12.2836C14.6808 12.3511 14.9926 12.5178 15.2374 12.7626C15.4821 13.0073 15.6488 13.3191 15.7163 13.6586C15.7838 13.998 15.7492 14.3499 15.6167 14.6697C15.4843 14.9895 15.26 15.2628 14.9722 15.4551C14.6844 15.6474 14.346 15.75 13.9999 15.75C13.5358 15.75 13.0907 15.5656 12.7625 15.2374C12.4343 14.9092 12.2499 14.4641 12.2499 14ZM21.8749 21.875C21.5288 21.875 21.1905 21.7724 20.9027 21.5801C20.6149 21.3878 20.3906 21.1145 20.2581 20.7947C20.1257 20.4749 20.091 20.123 20.1586 19.7836C20.2261 19.4441 20.3928 19.1323 20.6375 18.8876C20.8822 18.6428 21.1941 18.4761 21.5335 18.4086C21.873 18.3411 22.2249 18.3757 22.5446 18.5082C22.8644 18.6407 23.1377 18.865 23.33 19.1527C23.5223 19.4405 23.6249 19.7789 23.6249 20.125C23.6249 20.5891 23.4406 21.0342 23.1124 21.3624C22.7842 21.6906 22.3391 21.875 21.8749 21.875Z" fill="white"/>
</svg>
