<svg width="28" height="28" viewBox="0 0 28 28" fill="none" xmlns="http://www.w3.org/2000/svg">
<path d="M25.2558 18.8125C25.3713 19.0131 25.4027 19.2513 25.3431 19.4749C25.2834 19.6986 25.1376 19.8895 24.9375 20.0058L14.4375 26.1308C14.3037 26.2088 14.1516 26.2499 13.9967 26.2499C13.8418 26.2499 13.6897 26.2088 13.5559 26.1308L3.05594 20.0058C2.85873 19.8873 2.71613 19.6959 2.65902 19.473C2.6019 19.2501 2.63487 19.0137 2.75078 18.815C2.86669 18.6162 3.05622 18.4712 3.27833 18.4111C3.50044 18.3511 3.73725 18.381 3.9375 18.4943L14 24.3622L24.0625 18.4943C24.2631 18.3787 24.5012 18.3473 24.7249 18.4069C24.9485 18.4666 25.1394 18.6124 25.2558 18.8125ZM24.0625 13.2443L14 19.1122L3.9375 13.2443C3.73827 13.1451 3.50872 13.1255 3.29558 13.1896C3.08245 13.2537 2.90174 13.3966 2.79024 13.5892C2.67874 13.7818 2.64482 14.0097 2.69541 14.2264C2.74599 14.4431 2.87726 14.6325 3.0625 14.7558L13.5625 20.8808C13.6963 20.9588 13.8484 20.9999 14.0033 20.9999C14.1582 20.9999 14.3103 20.9588 14.4441 20.8808L24.9441 14.7558C25.0449 14.6988 25.1334 14.6222 25.2045 14.5307C25.2755 14.4392 25.3276 14.3344 25.3579 14.2226C25.3881 14.1107 25.3958 13.9939 25.3806 13.8791C25.3653 13.7642 25.3274 13.6535 25.269 13.5534C25.2107 13.4533 25.133 13.3658 25.0405 13.296C24.9481 13.2262 24.8426 13.1754 24.7304 13.1466C24.6182 13.1179 24.5013 13.1117 24.3867 13.1285C24.272 13.1452 24.1618 13.1846 24.0625 13.2443ZM2.625 8.75004C2.62535 8.59678 2.66594 8.4463 2.74272 8.31366C2.8195 8.18103 2.92978 8.07088 3.0625 7.99425L13.5625 1.86925C13.6963 1.79123 13.8484 1.75012 14.0033 1.75012C14.1582 1.75012 14.3103 1.79123 14.4441 1.86925L24.9441 7.99425C25.0761 8.07131 25.1857 8.18165 25.2619 8.31425C25.3381 8.44686 25.3781 8.59711 25.3781 8.75004C25.3781 8.90296 25.3381 9.05321 25.2619 9.18582C25.1857 9.31842 25.0761 9.42876 24.9441 9.50582L14.4441 15.6308C14.3103 15.7088 14.1582 15.7499 14.0033 15.7499C13.8484 15.7499 13.6963 15.7088 13.5625 15.6308L3.0625 9.50582C2.92978 9.42919 2.8195 9.31904 2.74272 9.18641C2.66594 9.05377 2.62535 8.90329 2.625 8.75004ZM5.23688 8.75004L14 13.8622L22.7631 8.75004L14 3.63785L5.23688 8.75004Z" fill="white"/>
</svg>
